<svg xmlns="http://www.w3.org/2000/svg" width="90" height="54" viewBox="0 0 90 54" fill="none">
  <g clip-path="url(#clip0_1026_19251)">
    <path d="M0 10.0388L2.06499 27.4522L7.4244 26.801L6.7321 20.9764L13.2016 20.1926L12.6764 15.8272L6.21883 16.611L5.87268 13.753L16.8064 12.4265L16.2931 8.07312L0 10.0388Z" fill="#E40063"/>
    <path d="M77.6697 18.2872L77.0013 12.7039L78.935 12.4747L82.3487 17.7205L87.9469 17.0451L83.5782 10.7985C84.3182 10.1835 84.8673 9.43582 85.2015 8.54344C85.5477 7.66312 85.6551 6.63809 85.5119 5.46836C85.4164 4.68451 85.2135 3.96096 84.9031 3.29771C84.5928 2.62239 84.1273 2.06767 83.5185 1.62148C82.9098 1.1753 82.1458 0.861757 81.2148 0.66881C80.2838 0.475864 79.1617 0.463805 77.8368 0.620574L70.4363 1.51295L72.5013 18.9264L77.6697 18.2993V18.2872ZM77.9084 4.75687C78.7201 4.66039 79.3169 4.74481 79.6989 5.01011C80.0808 5.27541 80.3076 5.7216 80.3792 6.33662C80.4509 6.95163 80.3315 7.434 80.0331 7.78371C79.7228 8.13343 79.1617 8.36255 78.3501 8.45903L76.5238 8.67609L76.0822 4.97393L77.9084 4.75687Z" fill="#E40063"/>
    <path d="M1.86206 34.9168L2.48275 40.1626L7.79442 39.5234L9.45357 53.5L15.5053 52.7644L13.8461 38.7878L19.1459 38.1487L18.5252 32.903L1.86206 34.9168Z" fill="#FF6226"/>
    <path d="M82.0623 25.1971L83.2201 34.9168L73.7665 26.198L68.5742 26.8372L70.8541 46.0595L76.4999 45.3721L75.3421 35.6042L84.8554 44.3712L89.9999 43.7441L87.7201 24.5098L82.0623 25.1971Z" fill="#FF6226"/>
    <path d="M31.7744 27.9707C31.7028 28.6098 31.6789 29.2731 31.7386 29.9122C31.7864 30.4308 31.858 30.9614 32.0609 31.492C32.2519 32.0105 32.6219 32.6014 33.2187 32.927C33.8275 33.2647 34.4959 33.2526 35.045 33.1441C35.606 33.0356 36.0954 32.8185 36.5609 32.5894C37.4919 32.107 38.2917 31.5161 39.0556 30.877C39.8195 30.2258 40.5118 29.5143 41.1803 28.839L43.1856 26.7648C44.5105 25.39 45.8593 24.0274 47.2201 22.725C47.5065 22.4597 47.793 22.1944 48.0914 21.9411C48.0675 22.0135 48.0437 22.0979 48.0198 22.1703C47.7094 23.0747 47.3872 24.0032 47.1365 24.98C46.8858 25.9568 46.6352 26.9577 46.7426 28.1637C46.7426 28.224 46.7545 28.2722 46.7784 28.3204C46.8262 28.4531 46.8739 28.6098 47.0768 28.839C47.1842 28.9475 47.3514 29.056 47.5423 29.1043C47.7333 29.1525 47.9004 29.1404 48.0198 29.1043C48.2704 29.044 48.3779 28.9596 48.4734 28.8993C48.5689 28.8269 48.6405 28.7666 48.7002 28.7063C48.9389 28.4651 49.0821 28.2601 49.2254 28.0431C49.5118 27.5848 49.6909 27.2351 49.9057 26.8613C50.3354 26.1257 50.789 25.4021 51.2784 24.7027C51.7678 24.0153 52.2811 23.3521 52.8421 22.7491C53.4031 22.1582 54.0238 21.6155 54.6683 21.2658C54.9787 21.0849 55.3129 20.9885 55.5636 20.9643C55.6829 20.9643 55.7784 20.9764 55.8262 21.0005C55.8739 21.0246 55.8739 21.0246 55.8978 21.0488C55.8978 21.0849 55.9336 21.1211 55.8978 21.2779L55.8142 21.9532L55.659 23.2676C55.5636 24.148 55.4561 25.0283 55.3964 25.9207C55.3606 26.3668 55.3487 26.8251 55.3487 27.2954C55.3487 27.5366 55.3606 27.7778 55.3964 28.031C55.4323 28.2842 55.4681 28.5495 55.6113 28.8751C55.6829 29.0319 55.7903 29.2128 55.9813 29.3816C56.1723 29.5505 56.4468 29.6469 56.6617 29.659C57.1153 29.6831 57.3898 29.5384 57.6405 29.4178C58.1179 29.1646 58.476 28.8751 58.8341 28.5857C59.5384 27.9948 60.159 27.3678 60.7797 26.801C62.0569 25.6795 63.4535 24.6906 64.9813 23.9671C65.7453 23.6053 66.5331 23.2797 67.3328 23.0988C68.1325 22.9541 69.0397 22.8335 69.8872 22.7009C71.606 22.4476 73.3368 22.1823 75.0556 21.8929C75.1392 21.8808 75.2108 21.7964 75.1988 21.712C75.1988 21.6155 75.1033 21.5432 75.0198 21.5552C73.2771 21.6879 71.5463 21.8447 69.8155 22.0014C68.9323 22.0858 68.1087 22.1461 67.1896 22.2547C66.2824 22.4114 65.423 22.6888 64.5994 23.0506C62.9402 23.7621 61.4243 24.7509 60.0277 25.8845C59.3235 26.4633 58.7028 27.0663 58.0463 27.5848C57.724 27.8381 57.3779 28.0792 57.0795 28.224C57.0079 28.2601 56.9362 28.2842 56.8885 28.2963C56.8169 28.1034 56.793 27.6813 56.793 27.3075C56.793 26.8974 56.8407 26.4754 56.8766 26.0533C56.9601 25.1971 57.0675 24.3288 57.1869 23.4726L57.3659 22.1703L57.4614 21.5311C57.5092 21.2658 57.5211 20.8317 57.3659 20.4579C57.2227 20.072 56.9004 19.7464 56.5423 19.5775C56.1962 19.4087 55.85 19.3725 55.5397 19.3725C54.919 19.4087 54.4177 19.6017 53.9641 19.8308C53.0569 20.3011 52.3527 20.9402 51.7081 21.6035C51.0636 22.2667 50.4906 22.9903 49.9654 23.7259C49.5715 24.2685 49.2134 24.8233 48.8673 25.39C49.0941 24.5218 49.3925 23.6415 49.7028 22.737C49.858 22.2788 50.0132 21.8205 50.1445 21.302C50.2041 21.0246 50.2877 20.8076 50.2758 20.3131C50.2638 20.1926 50.2638 19.9996 50.0848 19.7222C50.0012 19.5896 49.8341 19.4328 49.6551 19.3605C49.476 19.2761 49.3089 19.264 49.1895 19.2761C48.9508 19.2881 48.8195 19.3484 48.724 19.3846C48.6166 19.4328 48.533 19.4811 48.4614 19.5172C48.175 19.6861 47.972 19.867 47.7811 20.0237C47.5901 20.1805 47.3991 20.3373 47.2081 20.5061C46.8381 20.8317 46.48 21.1693 46.1219 21.507C44.7015 22.8456 43.4004 24.2806 42.0874 25.6795L40.1299 27.7898C39.4734 28.4893 38.8288 29.1766 38.1484 29.7796C37.4681 30.3946 36.728 30.9614 35.9641 31.3835C35.2121 31.8055 34.3407 32.0708 33.8514 31.8055C33.35 31.5764 33.0397 30.6961 32.9681 29.8158C32.8845 29.1163 32.8964 28.4169 32.9919 27.7175C33.5052 27.5728 34.0185 27.4039 34.5198 27.1748C35.1882 26.8733 35.8328 26.4392 36.346 25.8362L36.3222 25.8604C37.0384 25.1247 37.6352 24.2444 37.8142 23.135C37.85 22.8576 37.862 22.5561 37.7665 22.2305C37.671 21.905 37.4561 21.5794 37.0861 21.4105C36.8474 21.302 36.6564 21.3261 36.4893 21.3502C36.3222 21.3744 36.1789 21.4226 36.0476 21.4708C35.7731 21.5673 35.5463 21.6999 35.3195 21.8447C33.5888 23.0265 32.4906 24.8836 32.0132 26.8733C31.9773 27.018 31.9654 27.1627 31.9296 27.2954C30.7121 27.5969 29.4468 27.7778 28.1816 27.9466C25.4004 28.3084 22.5954 28.5737 19.8142 28.9596C19.7307 28.9596 19.671 29.044 19.6829 29.1284C19.6829 29.2128 19.7665 29.2731 19.85 29.261C22.6431 28.9596 25.4362 28.7666 28.2413 28.4772C29.4349 28.3566 30.6285 28.2119 31.8222 27.9707M35.7731 22.6164C35.9521 22.4959 36.1312 22.3873 36.3102 22.315C36.4654 22.2426 36.6922 22.2185 36.6683 22.2305C36.728 22.2547 36.8354 22.3511 36.8712 22.4838C36.919 22.6285 36.9309 22.8214 36.9071 23.0144C36.8116 23.8224 36.3222 24.6544 35.7134 25.2936L35.7015 25.3177C35.0689 26.1015 34.102 26.596 33.0874 26.9336C33.4694 25.2333 34.4124 23.6053 35.785 22.6044" fill="#51102B"/>
    <path d="M22.4164 23.5812C23.1684 24.1239 24.0636 24.4857 25.0902 24.6545C26.1167 24.8233 27.2506 24.8354 28.492 24.6907C29.8647 24.5218 31.0345 24.1963 32.0371 23.7259C32.3833 23.1471 32.7772 22.6165 33.2188 22.1341L33.3501 22.0015C33.744 21.5915 34.1857 21.2176 34.6512 20.9041H34.6631L34.675 20.88C34.7944 20.7956 34.9735 20.6991 35.1764 20.5906C35.7254 19.3364 35.8926 17.8049 35.6777 15.984L34.4721 5.86633L28.6711 6.56576L29.9005 16.9246C30.0079 17.8531 29.9244 18.5646 29.6379 19.047C29.3514 19.5294 28.8024 19.8308 28.0026 19.9273C27.2029 20.0238 26.6061 19.867 26.2122 19.4691C25.8183 19.0591 25.5676 18.3958 25.4602 17.4672L24.2307 7.10843L18.4297 7.80786L19.6353 17.9255C19.8024 19.2882 20.1127 20.4338 20.5902 21.3744C21.0676 22.303 21.6764 23.0506 22.4403 23.5933" fill="#E40063"/>
    <path d="M41.9683 9.77355L43.4722 22.4236H43.5558C44.1168 21.8207 44.7017 21.2418 45.2985 20.675C45.7282 20.265 46.0744 19.9515 46.4205 19.65C46.6234 19.4691 46.8263 19.3003 47.0173 19.1435L47.0651 19.1073C47.256 18.9506 47.4948 18.7576 47.829 18.5406C47.9364 18.4803 48.0558 18.4079 48.2229 18.3356H48.2468C48.3064 18.3114 48.4019 18.2753 48.5213 18.2391L47.4351 9.1103L52.2335 8.53146L51.6725 3.78015L36.585 5.61314L37.146 10.3645L41.9444 9.78561L41.9683 9.77355Z" fill="#E40063"/>
    <path d="M55.1818 17.1778C55.3728 17.5757 55.5995 17.9375 55.8383 18.2631C56.2441 18.2993 56.6261 18.3957 56.9722 18.5646C57.581 18.854 58.0942 19.4087 58.3449 20.0358C58.3688 20.084 58.3807 20.1443 58.4046 20.2046C58.7388 20.3252 59.0969 20.4337 59.4669 20.5061C60.4338 20.687 61.508 20.7111 62.6778 20.5664C65.1367 20.2649 66.951 19.3967 68.1208 17.9616C69.2905 16.5266 69.7202 14.5127 69.4099 11.9079L68.2043 1.79028L62.7255 2.45354L63.955 12.8124C64.0624 13.7409 63.9908 14.4403 63.7163 14.9348C63.4537 15.4171 62.9404 15.7066 62.1765 15.803C61.4245 15.8995 60.8515 15.7427 60.4815 15.3327C60.1115 14.9227 59.8608 14.2595 59.7534 13.3309L58.5239 2.97208L53.0452 3.63533L54.2507 13.753C54.4178 15.1157 54.7163 16.2613 55.1698 17.2019" fill="#E40063"/>
    <path d="M49.8461 29.1043C49.7386 29.2369 49.6193 29.3696 49.476 29.5264C49.3567 29.6349 49.2493 29.7314 49.118 29.8278H49.106L49.0821 29.852H49.0583C48.927 29.9484 48.6882 30.1173 48.2705 30.2137C48.1153 30.2499 47.9601 30.262 47.805 30.262C47.6378 30.262 47.4588 30.2378 47.2917 30.2017C46.9217 30.1173 46.5636 29.9122 46.289 29.6349C46.2652 29.6108 46.2413 29.5746 46.2055 29.5505L42.8275 29.9605L38.984 48.1216L35.3195 42.8879C36.1432 42.2005 36.74 41.3805 37.1219 40.4037C37.5039 39.4269 37.6113 38.2934 37.4562 37.003C37.3607 36.1348 37.1219 35.3389 36.7758 34.6033C36.6564 34.3621 36.5251 34.145 36.3819 33.9279C35.9999 34.0847 35.6299 34.1933 35.2718 34.2777C34.9734 34.338 34.6869 34.3621 34.4124 34.3621C33.7798 34.3621 33.2068 34.2174 32.7055 33.94C31.7625 33.4215 31.2731 32.5411 31.0344 31.902C30.9867 31.7694 30.9508 31.6488 30.915 31.5161C30.3182 31.5161 29.6856 31.5523 28.9933 31.6367L20.8169 32.6256L23.0967 51.8599L28.8023 51.1725L28.0742 45.0103L30.2108 44.7571L33.9827 50.5575L40.1657 49.8099L44.9044 49.231L45.4058 46.0233L51.7559 45.2515L53.0211 48.2422L59.4548 47.4583L50.7174 29.0078L49.8819 29.1043H49.8461ZM31.3925 39.5596C31.0583 39.9455 30.4376 40.1987 29.5304 40.3072L27.5132 40.5484L27.0238 36.4483L29.041 36.2071C29.9363 36.0986 30.6047 36.1951 31.0225 36.4845C31.4402 36.7739 31.6909 37.2683 31.7745 37.9436C31.858 38.631 31.7267 39.1616 31.3806 39.5475M46.1577 41.079L47.2201 34.4706L49.8103 40.6328L46.1577 41.079Z" fill="#FF6226"/>
    <path d="M61.4722 27.6934C61.2573 27.8864 61.0544 28.0914 60.8276 28.2964C60.4218 28.6823 60.004 29.0802 59.5266 29.4782C59.5266 29.4782 59.5146 29.4782 59.5027 29.4902L61.6035 47.181L67.6552 46.4454L65.3754 27.2111L61.4722 27.6814V27.6934Z" fill="#FF6226"/>
  </g>
  <defs>
    <clipPath id="clip0_1026_19251">
      <rect width="90" height="53" fill="white" transform="translate(0 0.5)"/>
    </clipPath>
  </defs>
</svg>
